<?xml version="1.0" encoding="utf-8"?>
<!-- Generator: Adobe Illustrator 16.0.0, SVG Export Plug-In . SVG Version: 6.00 Build 0)  -->
<!DOCTYPE svg PUBLIC "-//W3C//DTD SVG 1.1//EN" "http://www.w3.org/Graphics/SVG/1.1/DTD/svg11.dtd">
<svg version="1.1" id="Layer_1" xmlns="http://www.w3.org/2000/svg" xmlns:xlink="http://www.w3.org/1999/xlink" x="0px" y="0px"
	 width="300px" height="300px" viewBox="0 0 300 300" enable-background="new 0 0 300 300" xml:space="preserve">
<rect fill="#FFFFFF" width="300" height="300"/>
<g>
	<g>
		<circle fill="#9B5C8F" cx="104.489" cy="99.444" r="76.763"/>
		<g>
			<path fill="#FFFFFF" d="M57.51,65.108h93.909c5.944,0,10.753,4.811,10.753,10.754v35.847c0,5.942-4.809,10.752-10.753,10.752
				h-33.678l4.623,11.319l-20.329-11.319H57.558c-5.943,0-10.754-4.81-10.754-10.752V75.862
				C46.757,69.965,51.566,65.108,57.51,65.108z"/>
			<path fill="#9B5C8F" d="M53.372,74.909c0.657-0.892,1.642-1.359,2.955-1.454c2.393-0.187,3.753,0.938,4.081,3.377
				c1.453,9.802,3.047,18.103,4.736,24.903l10.271-19.557c0.938-1.783,2.111-2.722,3.519-2.814c2.062-0.14,3.328,1.173,3.845,3.938
				c1.172,6.238,2.673,11.538,4.456,16.04c1.218-11.913,3.282-20.495,6.189-25.793c0.703-1.314,1.736-1.972,3.096-2.064
				c1.08-0.093,2.063,0.235,2.954,0.938c0.892,0.702,1.361,1.594,1.454,2.672c0.047,0.845-0.093,1.548-0.467,2.253
				c-1.831,3.375-3.331,9.05-4.551,16.929c-1.171,7.645-1.594,13.601-1.312,17.869c0.094,1.171-0.094,2.204-0.564,3.096
				c-0.562,1.031-1.405,1.594-2.484,1.688c-1.219,0.093-2.486-0.468-3.706-1.734c-4.361-4.457-7.831-11.116-10.364-19.98
				c-3.049,6.003-5.299,10.506-6.754,13.508c-2.766,5.3-5.111,8.019-7.081,8.16c-1.266,0.094-2.345-0.984-3.282-3.235
				c-2.392-6.145-4.971-18.011-7.737-35.597C52.436,76.832,52.716,75.752,53.372,74.909L53.372,74.909z M154.156,82.271
				c-1.688-2.953-4.174-4.737-7.501-5.439c-0.892-0.188-1.737-0.281-2.535-0.281c-4.5,0-8.158,2.346-11.019,7.033
				c-2.439,3.987-3.66,8.396-3.66,13.226c0,3.612,0.752,6.706,2.251,9.287c1.689,2.954,4.174,4.737,7.504,5.44
				c0.892,0.188,1.734,0.281,2.532,0.281c4.549,0,8.207-2.346,11.021-7.036c2.438-4.032,3.658-8.44,3.658-13.272
				C156.455,87.853,155.658,84.804,154.156,82.271L154.156,82.271z M148.249,95.263c-0.657,3.096-1.829,5.393-3.566,6.94
				c-1.36,1.22-2.625,1.736-3.799,1.501c-1.125-0.234-2.063-1.22-2.766-3.049c-0.565-1.452-0.845-2.907-0.845-4.267
				c0-1.174,0.094-2.345,0.329-3.424c0.422-1.923,1.22-3.799,2.486-5.581c1.547-2.298,3.189-3.235,4.876-2.908
				c1.125,0.235,2.063,1.22,2.767,3.05c0.563,1.452,0.845,2.906,0.845,4.267C148.577,93.012,148.481,94.184,148.249,95.263
				L148.249,95.263z M124.798,82.271c-1.688-2.953-4.221-4.737-7.502-5.439c-0.892-0.188-1.735-0.281-2.533-0.281
				c-4.502,0-8.161,2.346-11.021,7.033c-2.438,3.987-3.659,8.396-3.659,13.226c0,3.612,0.751,6.706,2.251,9.287
				c1.689,2.954,4.175,4.737,7.504,5.44c0.892,0.188,1.735,0.281,2.534,0.281c4.547,0,8.206-2.346,11.021-7.036
				c2.438-4.032,3.657-8.44,3.657-13.272C127.049,87.853,126.3,84.804,124.798,82.271L124.798,82.271z M118.841,95.263
				c-0.655,3.096-1.827,5.393-3.562,6.94c-1.361,1.22-2.626,1.736-3.799,1.501c-1.125-0.234-2.063-1.22-2.768-3.049
				c-0.562-1.452-0.843-2.907-0.843-4.267c0-1.174,0.094-2.345,0.328-3.424c0.422-1.923,1.219-3.799,2.485-5.581
				c1.548-2.298,3.189-3.235,4.878-2.908c1.125,0.235,2.063,1.22,2.767,3.05c0.563,1.452,0.842,2.906,0.842,4.267
				C119.219,93.012,119.077,94.184,118.841,95.263L118.841,95.263z"/>
		</g>
	</g>
	<g>
		<g>
			<path fill="#1A5099" d="M195.512,279.818c-43.706,0-79.263-35.558-79.263-79.264c0-43.705,35.557-79.262,79.263-79.262
				c43.705,0,79.262,35.557,79.262,79.262C274.773,244.261,239.217,279.818,195.512,279.818z"/>
			<path fill="#FFFFFF" d="M195.512,123.793c42.395,0,76.762,34.368,76.762,76.762c0,42.396-34.367,76.764-76.762,76.764
				s-76.763-34.368-76.763-76.764C118.749,158.161,153.117,123.793,195.512,123.793 M195.512,118.793
				c-45.084,0-81.763,36.678-81.763,81.762c0,45.085,36.679,81.764,81.763,81.764s81.762-36.679,81.762-81.764
				C277.273,155.471,240.596,118.793,195.512,118.793L195.512,118.793z"/>
		</g>
		<g>
			<g id="layer101_1_">
				<path fill="#FFFFFF" d="M194.131,252.106c0.197-1.281,1.184-4.925,2.07-8.174c3.051-11.228,2.756-12.112-10.047-39.39
					c-12.309-26.095-13.885-32.496-9.945-40.473c2.166-4.529,14.082-17.135,16.248-17.135c0.984,0,1.182,1.971,0.689,9.65
					c-0.689,11.719-0.59,12.113,10.047,34.664c9.549,20.186,13.293,30.23,13.293,35.352c0,4.924-5.416,13.196-14.082,21.564
					C195.609,254.667,193.244,255.749,194.131,252.106z"/>
				<path fill="#FFFFFF" d="M160.355,241.864c0-0.295,0.689-3.052,1.574-6.008c2.463-8.566,1.576-12.8-6.795-30.328
					c-9.255-19.793-11.226-25.898-9.649-31.118c1.182-4.037,11.226-15.656,13.394-15.656c0.984,0,1.279,2.066,1.182,8.665
					c-0.197,8.567-0.197,8.567,5.611,20.876c13.393,28.558,14.477,32.989,9.848,39.979
					C170.398,235.856,160.355,244.918,160.355,241.864z"/>
				<path fill="#FFFFFF" d="M228.697,239.305c0.293-1.773,0.984-5.22,1.477-7.681c1.279-5.909,0.295-9.356-7.779-26.588
					c-11.129-23.732-11.916-27.968-6.795-35.746c3.15-4.726,9.355-10.536,11.227-10.536c0.787,0,0.984,2.854,0.688,8.665
					l-0.293,8.567l6.498,13.786c7.385,15.558,12.309,27.968,12.309,31.313c0,3.152-5.119,10.834-10.93,16.544
					C229.189,243.342,227.811,243.735,228.697,239.305z"/>
			</g>
			<g id="layer102_1_">
				<path fill="#FFFFFF" d="M194.426,253.483c-0.295-0.392,0.395-4.037,1.479-8.073c3.348-12.899,3.25-13.196-9.75-40.867
					c-14.475-30.624-14.967-35.549-5.516-46.972c3.842-4.628,10.834-10.636,12.311-10.636c0.395,0,0.492,4.334,0.197,9.65
					c-0.689,11.719-0.59,12.113,10.047,34.664c9.549,20.284,13.293,30.23,13.293,35.352c0,4.628-4.037,11.127-12.113,19.597
					C197.971,252.794,195.314,254.766,194.426,253.483z"/>
			</g>
		</g>
	</g>
</g>
</svg>
